STARTFONT 2.1
COMMENT
COMMENT Converted from OpenType font "Font 90 Icons.ttf" by "otf2bdf 3.0".
COMMENT
FONT -FreeType-Font 90 Icons-Medium-R-Normal--14-100-100-100-P-56-ISO10646-1
SIZE 10 100 100
FONTBOUNDINGBOX 15 15 0 -3
STARTPROPERTIES 19
FOUNDRY "FreeType"
FAMILY_NAME "Font 90 Icons"
WEIGHT_NAME "Medium"
SLANT "R"
SETWIDTH_NAME "Normal"
ADD_STYLE_NAME ""
PIXEL_SIZE 14
POINT_SIZE 100
RESOLUTION_X 100
RESOLUTION_Y 100
SPACING "P"
AVERAGE_WIDTH 56
CHARSET_REGISTRY "ISO10646"
CHARSET_ENCODING "1"
FONT_ASCENT 11
FONT_DESCENT 2
COPYRIGHT "Typeface © (el-harrak.blogspot.com). <darrati10@gmail.com>. All Rights Reserved"
_OTF_FONTFILE "Font 90 Icons.ttf"
_OTF_PSNAME "Font 90 Icons"
ENDPROPERTIES
CHARS 242
STARTCHAR 0000
ENCODING 0
SWIDTH 0 0
DWIDTH 0 0
BBX 0 0 0 0
BITMAP
ENDCHAR
STARTCHAR 001D
ENCODING 29
SWIDTH 0 0
DWIDTH 0 0
BBX 0 0 0 0
BITMAP
ENDCHAR
STARTCHAR 0020
ENCODING 32
SWIDTH 216 0
DWIDTH 3 0
BBX 0 0 0 0
BITMAP
ENDCHAR
STARTCHAR 0021
ENCODING 33
SWIDTH 1008 0
DWIDTH 14 0
BBX 14 13 0 -2
BITMAP
0FC0
3FA0
7FD0
7CC8
FFC4
FF84
FE04
F804
F004
7308
7210
3030
0FC0
ENDCHAR
STARTCHAR 0022
ENCODING 34
SWIDTH 1008 0
DWIDTH 14 0
BBX 14 11 0 -1
BITMAP
0780
0880
FFF8
FFFC
FFFC
FFFC
FFFC
FFFC
FFFC
FFFC
FFF8
ENDCHAR
STARTCHAR 0023
ENCODING 35
SWIDTH 1008 0
DWIDTH 14 0
BBX 13 15 0 -3
BITMAP
0400
FF80
5FF0
5FF0
7FF8
7FF8
7FF8
2878
2008
2000
3000
3000
3000
1000
1000
ENDCHAR
STARTCHAR 0024
ENCODING 36
SWIDTH 1008 0
DWIDTH 14 0
BBX 14 13 0 -2
BITMAP
7000
F800
FC00
7E00
3B00
1700
1E00
0D00
0080
0040
0020
0010
000C
ENDCHAR
STARTCHAR 0025
ENCODING 37
SWIDTH 1008 0
DWIDTH 14 0
BBX 13 15 0 -3
BITMAP
0200
0300
0FC0
5FF8
F238
7278
7ED8
6318
6FD8
7A78
F338
5FF8
0FC0
0300
0300
ENDCHAR
STARTCHAR 0026
ENCODING 38
SWIDTH 1008 0
DWIDTH 14 0
BBX 14 13 0 -2
BITMAP
0FC0
3020
4FD0
5FE8
B7E8
BB74
BCF4
BFF4
BFE8
5FE8
4FD0
3220
0FC0
ENDCHAR
STARTCHAR 0027
ENCODING 39
SWIDTH 1008 0
DWIDTH 14 0
BBX 14 13 0 -2
BITMAP
1F00
7F80
61C0
E4C0
DF60
DF60
E4C0
61C0
7FE0
1FF0
00F8
007C
0038
ENDCHAR
STARTCHAR 0028
ENCODING 40
SWIDTH 1008 0
DWIDTH 14 0
BBX 14 13 0 -2
BITMAP
1F00
7F80
61C0
C0C0
DF60
DE60
E0C0
61C0
7FE0
1FF0
00F8
007C
0038
ENDCHAR
STARTCHAR 0029
ENCODING 41
SWIDTH 1008 0
DWIDTH 14 0
BBX 14 10 0 -1
BITMAP
FFFC
E014
B024
9844
8C84
8F44
9024
A014
C00C
FFF8
ENDCHAR
STARTCHAR 002A
ENCODING 42
SWIDTH 1008 0
DWIDTH 14 0
BBX 12 15 1 -3
BITMAP
0400
0600
0600
0600
3780
1F80
EFE0
F7D0
FFB0
FF70
FEF0
FD70
FFB0
FFD0
FFE0
ENDCHAR
STARTCHAR 002B
ENCODING 43
SWIDTH 1008 0
DWIDTH 14 0
BBX 14 13 0 -2
BITMAP
FFFC
FFFC
CFCC
C78C
EFBC
FFFC
FFFC
FFFC
EFBC
C78C
CFCC
FFFC
FFFC
ENDCHAR
STARTCHAR 002C
ENCODING 44
SWIDTH 1008 0
DWIDTH 14 0
BBX 14 13 0 -2
BITMAP
00F0
01F8
03CC
07F8
0FF8
1FF8
37F0
6BE0
F5C0
3A80
1D00
0E00
0400
ENDCHAR
STARTCHAR 002D
ENCODING 45
SWIDTH 1008 0
DWIDTH 14 0
BBX 14 13 0 -2
BITMAP
0FC0
3020
6050
5088
8988
8F84
8F84
8F84
8188
40A8
6070
3020
0FC0
ENDCHAR
STARTCHAR 002E
ENCODING 46
SWIDTH 1008 0
DWIDTH 14 0
BBX 12 15 1 -3
BITMAP
7FE0
4020
4020
4020
4020
4020
4020
7FE0
7FE0
7E20
7FE0
0200
0200
0F00
FFF0
ENDCHAR
STARTCHAR 002F
ENCODING 47
SWIDTH 1008 0
DWIDTH 14 0
BBX 14 13 0 -2
BITMAP
6790
2F90
AFA8
AFA8
7FA8
7FA8
7FA8
AFA8
AF94
2790
4310
0300
0300
ENDCHAR
STARTCHAR 0030
ENCODING 48
SWIDTH 1008 0
DWIDTH 14 0
BBX 14 13 0 -2
BITMAP
0FC0
3FE0
7FB0
6798
C308
C708
C48C
FFFC
FCF8
7878
7870
38E0
0FC0
ENDCHAR
STARTCHAR 0031
ENCODING 49
SWIDTH 1008 0
DWIDTH 14 0
BBX 13 15 0 -3
BITMAP
0300
0700
0F40
3F60
7730
6718
E718
C718
C018
C018
6018
7030
38F0
1FE0
0780
ENDCHAR
STARTCHAR 0032
ENCODING 50
SWIDTH 1008 0
DWIDTH 14 0
BBX 13 15 0 -3
BITMAP
0200
0300
0300
4318
F238
7278
1EC0
0300
0FC0
7A78
F238
4318
0300
0300
0300
ENDCHAR
STARTCHAR 0033
ENCODING 51
SWIDTH 1008 0
DWIDTH 14 0
BBX 14 13 0 -2
BITMAP
0200
0200
0300
0700
0FC0
FFFC
3FF0
1FE0
1FC0
1FC0
1FE0
18E0
1020
ENDCHAR
STARTCHAR 0034
ENCODING 52
SWIDTH 1008 0
DWIDTH 14 0
BBX 14 9 0 0
BITMAP
7FF8
FFFC
FFFC
FFFC
FFFC
FEBC
FFDC
FFEC
FFFC
ENDCHAR
STARTCHAR 0035
ENCODING 53
SWIDTH 1008 0
DWIDTH 14 0
BBX 14 10 0 -1
BITMAP
0760
0BE0
3FA0
5FF8
BFE4
3FE0
3CE0
3CE0
3CE0
3CE0
ENDCHAR
STARTCHAR 0036
ENCODING 54
SWIDTH 1008 0
DWIDTH 14 0
BBX 14 15 0 -3
BITMAP
0020
3060
3060
78F0
FCF8
F4F8
F578
F5FC
F4F8
70F8
7170
7070
7070
7070
3060
ENDCHAR
STARTCHAR 0037
ENCODING 55
SWIDTH 1008 0
DWIDTH 14 0
BBX 14 11 0 -1
BITMAP
0C00
3300
7180
73C0
8E40
8E40
8E40
F1C0
71C0
33DC
0E20
ENDCHAR
STARTCHAR 0038
ENCODING 56
SWIDTH 1008 0
DWIDTH 14 0
BBX 10 15 2 -3
BITMAP
FFC0
FFC0
8040
8040
FFC0
9240
9240
FFC0
9240
9240
FFC0
FFC0
9240
FFC0
FFC0
ENDCHAR
STARTCHAR 0039
ENCODING 57
SWIDTH 1008 0
DWIDTH 14 0
BBX 14 13 0 -2
BITMAP
8000
4004
2FF8
2FF8
1FF0
17F0
17E0
1000
1FF8
0000
1830
1C30
1830
ENDCHAR
STARTCHAR 003A
ENCODING 58
SWIDTH 1008 0
DWIDTH 14 0
BBX 14 13 0 -2
BITMAP
01F0
03F8
03C8
03DC
03F8
07F8
0DF0
1E60
3F00
7C00
F000
F000
E000
ENDCHAR
STARTCHAR 003B
ENCODING 59
SWIDTH 1008 0
DWIDTH 14 0
BBX 14 13 0 -2
BITMAP
0200
0200
0200
0200
0200
0200
FFFC
0200
0200
0200
0200
0200
0200
ENDCHAR
STARTCHAR 003C
ENCODING 60
SWIDTH 1008 0
DWIDTH 14 0
BBX 14 11 0 -1
BITMAP
0200
0300
0780
0480
08C0
1840
1060
3020
2010
4018
C00C
ENDCHAR
STARTCHAR 003D
ENCODING 61
SWIDTH 1008 0
DWIDTH 14 0
BBX 14 13 0 -2
BITMAP
0FC0
3020
5F10
4888
88C8
8884
8F04
8904
8988
4888
5C70
2020
1FC0
ENDCHAR
STARTCHAR 003E
ENCODING 62
SWIDTH 1008 0
DWIDTH 14 0
BBX 14 13 0 -2
BITMAP
0FC0
3020
47D0
4848
9028
9004
B004
9004
9028
4848
4790
2020
1FC0
ENDCHAR
STARTCHAR 003F
ENCODING 63
SWIDTH 1008 0
DWIDTH 14 0
BBX 14 13 0 -2
BITMAP
0FC0
3CE0
7030
6018
C008
C008
C00C
C008
C008
6018
6030
3860
0FC0
ENDCHAR
STARTCHAR 0040
ENCODING 64
SWIDTH 1008 0
DWIDTH 14 0
BBX 14 13 0 -2
BITMAP
0200
0300
0700
0780
0F80
0FC0
1FC0
1FE0
3FE0
3FF0
7FF0
7FF8
FFFC
ENDCHAR
STARTCHAR 0041
ENCODING 65
SWIDTH 1008 0
DWIDTH 14 0
BBX 14 13 0 -2
BITMAP
8400
C600
E700
FFC0
FDE0
FEF0
FFFC
FEF0
FDE0
FFC0
E700
C600
8400
ENDCHAR
STARTCHAR 0042
ENCODING 66
SWIDTH 1008 0
DWIDTH 14 0
BBX 12 15 1 -3
BITMAP
8070
C070
E070
F870
FE70
FF70
FFF0
FFF0
FFF0
FFF0
FE70
F870
F070
C070
8070
ENDCHAR
STARTCHAR 0043
ENCODING 67
SWIDTH 1008 0
DWIDTH 14 0
BBX 10 15 2 -3
BITMAP
F3C0
F3C0
F3C0
F3C0
F3C0
F3C0
F3C0
F3C0
F3C0
F3C0
F3C0
F3C0
F3C0
F3C0
F3C0
ENDCHAR
STARTCHAR 0044
ENCODING 68
SWIDTH 1008 0
DWIDTH 14 0
BBX 12 15 1 -3
BITMAP
8000
C000
E000
F800
FE00
FF00
FFC0
FFF0
FFC0
FF80
FE00
F800
F000
C000
8000
ENDCHAR
STARTCHAR 0045
ENCODING 69
SWIDTH 1008 0
DWIDTH 14 0
BBX 14 13 0 -2
BITMAP
0FC0
3FE0
7FF0
7FF8
F878
F038
F03C
F038
F878
7FF8
7FF0
3FE0
0FC0
ENDCHAR
STARTCHAR 0046
ENCODING 70
SWIDTH 1008 0
DWIDTH 14 0
BBX 14 13 0 -2
BITMAP
FFFC
FFFC
FFFC
FFFC
FFFC
FFFC
FFFC
FFFC
FFFC
FFFC
FFFC
FFFC
FFFC
ENDCHAR
STARTCHAR 0047
ENCODING 71
SWIDTH 1008 0
DWIDTH 14 0
BBX 12 15 1 -3
BITMAP
E010
E030
E0F0
E1F0
E7F0
FFF0
FFF0
FFF0
FFF0
FFF0
E7F0
E3F0
E0F0
E030
E010
ENDCHAR
STARTCHAR 0048
ENCODING 72
SWIDTH 1008 0
DWIDTH 14 0
BBX 14 13 0 -2
BITMAP
0084
018C
03BC
0F7C
1EFC
3FFC
F7FC
7FFC
1EFC
0F7C
07BC
018C
0084
ENDCHAR
STARTCHAR 0049
ENCODING 73
SWIDTH 1008 0
DWIDTH 14 0
BBX 14 13 0 -2
BITMAP
9000
9000
9200
9380
93C0
93F0
93FC
93F0
93C0
9380
9200
9000
9000
ENDCHAR
STARTCHAR 004A
ENCODING 74
SWIDTH 1008 0
DWIDTH 14 0
BBX 14 13 0 -2
BITMAP
0200
0300
0780
0FC0
1FC0
1FE0
3FF0
7FF8
FFFC
0000
FFFC
FFFC
FFFC
ENDCHAR
STARTCHAR 004B
ENCODING 75
SWIDTH 1008 0
DWIDTH 14 0
BBX 14 13 0 -2
BITMAP
0030
0030
0060
0060
7FC0
FFE0
07E0
03F0
0370
0638
1C1C
2E08
0208
ENDCHAR
STARTCHAR 004C
ENCODING 76
SWIDTH 1008 0
DWIDTH 14 0
BBX 12 15 1 -3
BITMAP
0040
0040
1FC0
7FE0
81E0
03E0
0710
0000
0C00
F800
7820
7FC0
7F80
2000
2000
ENDCHAR
STARTCHAR 004D
ENCODING 77
SWIDTH 1008 0
DWIDTH 14 0
BBX 14 11 0 -1
BITMAP
1F80
3FC0
60E0
C060
C0FC
C078
C070
C020
6000
3B80
1F80
ENDCHAR
STARTCHAR 004E
ENCODING 78
SWIDTH 1008 0
DWIDTH 14 0
BBX 14 9 0 0
BITMAP
0018
003C
4078
E0F0
F1E0
7BC0
3F80
1F00
0E00
ENDCHAR
STARTCHAR 004F
ENCODING 79
SWIDTH 1008 0
DWIDTH 14 0
BBX 14 13 0 -2
BITMAP
F800
FE00
1F80
03C0
F9E0
FC70
1E70
0738
03B8
7198
F998
F9DC
71D8
ENDCHAR
STARTCHAR 0050
ENCODING 80
SWIDTH 1008 0
DWIDTH 14 0
BBX 13 15 0 -3
BITMAP
0300
0FC0
1FE0
3870
3030
3030
3030
FFF8
FFF8
FCF8
FDF8
FDF8
FCF8
FFF8
FFF8
ENDCHAR
STARTCHAR 0051
ENCODING 81
SWIDTH 1008 0
DWIDTH 14 0
BBX 14 13 0 -2
BITMAP
1FE0
1FE0
1FE0
1FE0
1FE0
0200
0200
1DE0
1020
FCFC
FCFC
FCFC
FCFC
ENDCHAR
STARTCHAR 0052
ENCODING 82
SWIDTH 1008 0
DWIDTH 14 0
BBX 14 8 0 0
BITMAP
0600
3F70
7F78
C408
C00C
C018
7FF8
1FE0
ENDCHAR
STARTCHAR 0053
ENCODING 83
SWIDTH 1008 0
DWIDTH 14 0
BBX 14 11 0 -1
BITMAP
00C0
01E0
FFF0
FFF8
C6C8
FFDC
FFD8
BFD8
BFD8
FFF0
7FF0
ENDCHAR
STARTCHAR 0054
ENCODING 84
SWIDTH 1008 0
DWIDTH 14 0
BBX 14 13 0 -2
BITMAP
0FC0
3FE0
7070
7838
EC18
C618
C30C
C198
E0D8
6078
7070
3FE0
0FC0
ENDCHAR
STARTCHAR 0055
ENCODING 85
SWIDTH 1008 0
DWIDTH 14 0
BBX 14 12 0 -2
BITMAP
0200
0600
0E00
FE00
FE00
FE7C
FE00
FE00
0E00
0600
0200
0200
ENDCHAR
STARTCHAR 0056
ENCODING 86
SWIDTH 1008 0
DWIDTH 14 0
BBX 14 13 0 -2
BITMAP
0100
0300
0700
0F00
FF30
FF30
FF7C
FF30
FF30
0F00
0700
0300
0100
ENDCHAR
STARTCHAR 0057
ENCODING 87
SWIDTH 1008 0
DWIDTH 14 0
BBX 14 13 0 -2
BITMAP
3870
7CF8
FFF8
FFFC
FFF8
7FF8
3FF0
1FE0
0FC0
0780
0300
0200
0200
ENDCHAR
STARTCHAR 0058
ENCODING 88
SWIDTH 1008 0
DWIDTH 14 0
BBX 11 15 1 -3
BITMAP
1000
1000
1000
1000
1400
1680
D6A0
DFE0
DFE0
FFE0
FFE0
7FE0
3FE0
3FE0
1FE0
ENDCHAR
STARTCHAR 0059
ENCODING 89
SWIDTH 1008 0
DWIDTH 14 0
BBX 10 15 2 -3
BITMAP
0800
0C00
2F00
2F40
2FC0
2FC0
2FC0
AFC0
BFC0
BFC0
FFC0
FFC0
7FC0
7FC0
3F80
ENDCHAR
STARTCHAR 005A
ENCODING 90
SWIDTH 1008 0
DWIDTH 14 0
BBX 14 13 0 -2
BITMAP
0110
0318
0748
0728
FF28
FF2C
FF2C
FF2C
FF28
0F28
0748
0318
0110
ENDCHAR
STARTCHAR 005B
ENCODING 91
SWIDTH 1008 0
DWIDTH 14 0
BBX 13 13 0 -2
BITMAP
8000
E000
F800
FE00
FF80
FFE0
FFF8
FFF0
FFC0
FF00
FC00
F000
C000
ENDCHAR
STARTCHAR 005C
ENCODING 92
SWIDTH 1008 0
DWIDTH 14 0
BBX 14 13 0 -2
BITMAP
FFFC
7FF8
7FF0
3FF0
3FE0
1FE0
1FC0
0FC0
0F80
0780
0700
0300
0200
ENDCHAR
STARTCHAR 005D
ENCODING 93
SWIDTH 1008 0
DWIDTH 14 0
BBX 14 13 0 -2
BITMAP
000C
003C
00FC
03FC
0FFC
3FFC
FFFC
3FFC
0FFC
03FC
00FC
003C
000C
ENDCHAR
STARTCHAR 005E
ENCODING 94
SWIDTH 1008 0
DWIDTH 14 0
BBX 14 5 0 2
BITMAP
2010
4008
FFFC
4008
2010
ENDCHAR
STARTCHAR 005F
ENCODING 95
SWIDTH 1008 0
DWIDTH 14 0
BBX 5 15 4 -3
BITMAP
20
30
E8
20
20
20
20
20
20
20
20
20
A8
70
20
ENDCHAR
STARTCHAR 0060
ENCODING 96
SWIDTH 1008 0
DWIDTH 14 0
BBX 5 15 4 -3
BITMAP
30
30
30
30
30
30
30
30
30
30
30
30
F8
30
20
ENDCHAR
STARTCHAR 0061
ENCODING 97
SWIDTH 1008 0
DWIDTH 14 0
BBX 14 8 0 1
BITMAP
0010
1F90
3FF0
3FF0
41F8
80F8
01F8
03FC
ENDCHAR
STARTCHAR 0062
ENCODING 98
SWIDTH 1008 0
DWIDTH 14 0
BBX 14 8 0 1
BITMAP
2000
27C0
3FE0
7FF0
7E18
7C08
7E04
FF00
ENDCHAR
STARTCHAR 0063
ENCODING 99
SWIDTH 1008 0
DWIDTH 14 0
BBX 13 15 0 -3
BITMAP
0700
0780
0780
0780
0780
0780
0780
E798
FFF8
7FF8
3FF0
1FE0
0FC0
0780
0300
ENDCHAR
STARTCHAR 0064
ENCODING 100
SWIDTH 1008 0
DWIDTH 14 0
BBX 13 14 0 -2
BITMAP
0010
4038
E078
E0F8
F1F0
F3E0
F7C0
FF80
FF00
FE00
FF80
FFF0
FFF0
7FF0
ENDCHAR
STARTCHAR 0065
ENCODING 101
SWIDTH 1008 0
DWIDTH 14 0
BBX 13 14 0 -2
BITMAP
2000
7010
F818
7C38
3E38
1F38
0FF8
07F8
03F8
01F8
0FF8
3FF8
7FF8
3FF8
ENDCHAR
STARTCHAR 0066
ENCODING 102
SWIDTH 1008 0
DWIDTH 14 0
BBX 14 13 0 -2
BITMAP
0600
0E00
1E00
3C00
7C00
FFFC
FFFC
7FF8
3C00
1E00
0E00
0600
0200
ENDCHAR
STARTCHAR 0067
ENCODING 103
SWIDTH 1008 0
DWIDTH 14 0
BBX 14 13 0 -2
BITMAP
0100
0380
01C0
01E0
00F0
FFF8
FFFC
FFF8
00F0
01E0
01C0
0380
0300
ENDCHAR
STARTCHAR 0068
ENCODING 104
SWIDTH 1008 0
DWIDTH 14 0
BBX 14 15 0 -3
BITMAP
0200
0780
0FC0
1FE0
3FF0
7FF8
FFF8
E7BC
0780
0780
0780
0780
0780
0780
0300
ENDCHAR
STARTCHAR 0069
ENCODING 105
SWIDTH 1008 0
DWIDTH 14 0
BBX 14 13 0 -2
BITMAP
FFF0
FFF0
FFE0
FF80
FE00
FF00
FF80
F7C0
F3E0
E1F0
E0F8
607C
0038
ENDCHAR
STARTCHAR 006A
ENCODING 106
SWIDTH 1008 0
DWIDTH 14 0
BBX 14 13 0 -2
BITMAP
3FF8
7FFC
3FFC
07FC
03FC
07FC
0FFC
1FBC
3F3C
7E3C
FC1C
F818
7000
ENDCHAR
STARTCHAR 006B
ENCODING 107
SWIDTH 1008 0
DWIDTH 14 0
BBX 14 11 0 -1
BITMAP
0100
0080
00C0
1FE0
7FF0
7FFC
F1F0
C1C0
C380
8200
8000
ENDCHAR
STARTCHAR 006C
ENCODING 108
SWIDTH 1080 0
DWIDTH 15 0
BBX 15 13 0 -2
BITMAP
0200
0600
0E00
1FC0
3FF0
7FFC
FFFC
7F1E
1F0E
0706
0102
0002
0002
ENDCHAR
STARTCHAR 006D
ENCODING 109
SWIDTH 1008 0
DWIDTH 14 0
BBX 12 15 1 -3
BITMAP
1F00
1F00
1F00
1F00
1F00
1F00
1F00
1F00
FFF0
7FE0
3FC0
1F80
0F00
0600
0400
ENDCHAR
STARTCHAR 006E
ENCODING 110
SWIDTH 1008 0
DWIDTH 14 0
BBX 14 11 0 -1
BITMAP
0400
0C00
1C00
3FFC
7FFC
FFFC
7FFC
3FFC
1C00
0C00
0400
ENDCHAR
STARTCHAR 006F
ENCODING 111
SWIDTH 1008 0
DWIDTH 14 0
BBX 14 11 0 -1
BITMAP
0100
0180
01C0
FFE0
FFF0
FFFC
FFF0
FFE0
01C0
0180
0100
ENDCHAR
STARTCHAR 0070
ENCODING 112
SWIDTH 1008 0
DWIDTH 14 0
BBX 12 15 1 -3
BITMAP
0400
0600
0F00
1F80
3FC0
7FE0
FFF0
1F00
1F00
1F00
1F00
1F00
1F00
1F00
1F00
ENDCHAR
STARTCHAR 0071
ENCODING 113
SWIDTH 1008 0
DWIDTH 14 0
BBX 12 15 1 -3
BITMAP
0080
0180
0180
03C0
C3C0
C7E0
CFF0
C180
C180
C180
C180
E380
FF00
7F00
1C00
ENDCHAR
STARTCHAR 0072
ENCODING 114
SWIDTH 1008 0
DWIDTH 14 0
BBX 14 11 0 -1
BITMAP
0400
1C00
3FC0
FFF0
3FF8
0C18
041C
001C
0018
0FF8
0FF0
ENDCHAR
STARTCHAR 0073
ENCODING 115
SWIDTH 1008 0
DWIDTH 14 0
BBX 14 11 0 -1
BITMAP
0780
3FE0
7FF8
FFF8
FFFC
FFF8
7FF8
7FF0
1FE0
0600
0800
ENDCHAR
STARTCHAR 0074
ENCODING 116
SWIDTH 1008 0
DWIDTH 14 0
BBX 14 11 0 -1
BITMAP
FFFC
FFFC
FFFC
FFFC
FFFC
FFFC
FFFC
FFFC
7FF8
0600
0400
ENDCHAR
STARTCHAR 0075
ENCODING 117
SWIDTH 1008 0
DWIDTH 14 0
BBX 14 11 0 -1
BITMAP
0780
3FE0
7FF8
FFF8
FFFC
FFF8
7FF8
7FF0
1FE0
0180
00C0
ENDCHAR
STARTCHAR 0076
ENCODING 118
SWIDTH 1008 0
DWIDTH 14 0
BBX 14 11 0 -1
BITMAP
FFF8
FFFC
FFFC
FFFC
FFFC
FFFC
FFFC
FFFC
FFF8
0100
0080
ENDCHAR
STARTCHAR 0077
ENCODING 119
SWIDTH 1008 0
DWIDTH 14 0
BBX 14 13 0 -2
BITMAP
0300
2320
3FF0
3FF0
3DE0
7878
F87C
F878
3CE0
3FF0
3FF0
3320
0300
ENDCHAR
STARTCHAR 0078
ENCODING 120
SWIDTH 1008 0
DWIDTH 14 0
BBX 14 11 0 -1
BITMAP
5000
F800
C9A0
FDF0
37E0
073C
0718
0F30
03F8
03E0
0360
ENDCHAR
STARTCHAR 0079
ENCODING 121
SWIDTH 1008 0
DWIDTH 14 0
BBX 14 12 0 -1
BITMAP
1FF8
3860
3C78
EEF0
43D0
0380
07C0
0EE0
3C70
783C
7018
0010
ENDCHAR
STARTCHAR 007A
ENCODING 122
SWIDTH 1008 0
DWIDTH 14 0
BBX 14 13 0 -2
BITMAP
0100
0100
0300
0300
0200
021C
7FF0
DF80
FE00
6F00
0B00
0B00
0E00
ENDCHAR
STARTCHAR 007B
ENCODING 123
SWIDTH 1008 0
DWIDTH 14 0
BBX 14 13 0 -2
BITMAP
0060
0070
0050
0008
0008
000C
800C
8008
4008
4018
2030
18E0
0780
ENDCHAR
STARTCHAR 007C
ENCODING 124
SWIDTH 1008 0
DWIDTH 14 0
BBX 14 13 0 -2
BITMAP
3800
3000
7000
4000
C000
8000
800C
8008
4008
4018
2030
18E0
0F80
ENDCHAR
STARTCHAR 007D
ENCODING 125
SWIDTH 504 0
DWIDTH 7 0
BBX 0 0 0 0
BITMAP
ENDCHAR
STARTCHAR 007E
ENCODING 126
SWIDTH 504 0
DWIDTH 7 0
BBX 0 0 0 0
BITMAP
ENDCHAR
STARTCHAR 00A0
ENCODING 160
SWIDTH 216 0
DWIDTH 3 0
BBX 0 0 0 0
BITMAP
ENDCHAR
STARTCHAR 00A1
ENCODING 161
SWIDTH 360 0
DWIDTH 5 0
BBX 0 0 0 0
BITMAP
ENDCHAR
STARTCHAR 00A2
ENCODING 162
SWIDTH 576 0
DWIDTH 8 0
BBX 0 0 0 0
BITMAP
ENDCHAR
STARTCHAR 00A3
ENCODING 163
SWIDTH 504 0
DWIDTH 7 0
BBX 0 0 0 0
BITMAP
ENDCHAR
STARTCHAR 00A4
ENCODING 164
SWIDTH 504 0
DWIDTH 7 0
BBX 0 0 0 0
BITMAP
ENDCHAR
STARTCHAR 00A5
ENCODING 165
SWIDTH 648 0
DWIDTH 9 0
BBX 0 0 0 0
BITMAP
ENDCHAR
STARTCHAR 00A6
ENCODING 166
SWIDTH 504 0
DWIDTH 7 0
BBX 0 0 0 0
BITMAP
ENDCHAR
STARTCHAR 00A7
ENCODING 167
SWIDTH 504 0
DWIDTH 7 0
BBX 0 0 0 0
BITMAP
ENDCHAR
STARTCHAR 00A8
ENCODING 168
SWIDTH 504 0
DWIDTH 7 0
BBX 0 0 0 0
BITMAP
ENDCHAR
STARTCHAR 00A9
ENCODING 169
SWIDTH 792 0
DWIDTH 11 0
BBX 0 0 0 0
BITMAP
ENDCHAR
STARTCHAR 00AA
ENCODING 170
SWIDTH 288 0
DWIDTH 4 0
BBX 0 0 0 0
BITMAP
ENDCHAR
STARTCHAR 00AB
ENCODING 171
SWIDTH 432 0
DWIDTH 6 0
BBX 0 0 0 0
BITMAP
ENDCHAR
STARTCHAR 00AC
ENCODING 172
SWIDTH 504 0
DWIDTH 7 0
BBX 0 0 0 0
BITMAP
ENDCHAR
STARTCHAR 00AD
ENCODING 173
SWIDTH 1008 0
DWIDTH 14 0
BBX 14 13 0 -2
BITMAP
0FC0
3020
6050
5088
8988
8F84
8F84
8F84
8188
40A8
6070
3020
0FC0
ENDCHAR
STARTCHAR 00AE
ENCODING 174
SWIDTH 792 0
DWIDTH 11 0
BBX 0 0 0 0
BITMAP
ENDCHAR
STARTCHAR 00AF
ENCODING 175
SWIDTH 360 0
DWIDTH 5 0
BBX 0 0 0 0
BITMAP
ENDCHAR
STARTCHAR 00B0
ENCODING 176
SWIDTH 360 0
DWIDTH 5 0
BBX 0 0 0 0
BITMAP
ENDCHAR
STARTCHAR 00B1
ENCODING 177
SWIDTH 504 0
DWIDTH 7 0
BBX 0 0 0 0
BITMAP
ENDCHAR
STARTCHAR 00B2
ENCODING 178
SWIDTH 504 0
DWIDTH 7 0
BBX 0 0 0 0
BITMAP
ENDCHAR
STARTCHAR 00B3
ENCODING 179
SWIDTH 504 0
DWIDTH 7 0
BBX 0 0 0 0
BITMAP
ENDCHAR
STARTCHAR 00B4
ENCODING 180
SWIDTH 504 0
DWIDTH 7 0
BBX 0 0 0 0
BITMAP
ENDCHAR
STARTCHAR 00B5
ENCODING 181
SWIDTH 576 0
DWIDTH 8 0
BBX 0 0 0 0
BITMAP
ENDCHAR
STARTCHAR 00B6
ENCODING 182
SWIDTH 504 0
DWIDTH 7 0
BBX 0 0 0 0
BITMAP
ENDCHAR
STARTCHAR 00B7
ENCODING 183
SWIDTH 216 0
DWIDTH 3 0
BBX 0 0 0 0
BITMAP
ENDCHAR
STARTCHAR 00B8
ENCODING 184
SWIDTH 504 0
DWIDTH 7 0
BBX 0 0 0 0
BITMAP
ENDCHAR
STARTCHAR 00B9
ENCODING 185
SWIDTH 504 0
DWIDTH 7 0
BBX 0 0 0 0
BITMAP
ENDCHAR
STARTCHAR 00BA
ENCODING 186
SWIDTH 360 0
DWIDTH 5 0
BBX 0 0 0 0
BITMAP
ENDCHAR
STARTCHAR 00BB
ENCODING 187
SWIDTH 432 0
DWIDTH 6 0
BBX 0 0 0 0
BITMAP
ENDCHAR
STARTCHAR 00BC
ENCODING 188
SWIDTH 864 0
DWIDTH 12 0
BBX 0 0 0 0
BITMAP
ENDCHAR
STARTCHAR 00BD
ENCODING 189
SWIDTH 936 0
DWIDTH 13 0
BBX 0 0 0 0
BITMAP
ENDCHAR
STARTCHAR 00BE
ENCODING 190
SWIDTH 864 0
DWIDTH 12 0
BBX 0 0 0 0
BITMAP
ENDCHAR
STARTCHAR 00BF
ENCODING 191
SWIDTH 360 0
DWIDTH 5 0
BBX 0 0 0 0
BITMAP
ENDCHAR
STARTCHAR 00C0
ENCODING 192
SWIDTH 792 0
DWIDTH 11 0
BBX 0 0 0 0
BITMAP
ENDCHAR
STARTCHAR 00C1
ENCODING 193
SWIDTH 792 0
DWIDTH 11 0
BBX 0 0 0 0
BITMAP
ENDCHAR
STARTCHAR 00C2
ENCODING 194
SWIDTH 792 0
DWIDTH 11 0
BBX 0 0 0 0
BITMAP
ENDCHAR
STARTCHAR 00C3
ENCODING 195
SWIDTH 792 0
DWIDTH 11 0
BBX 0 0 0 0
BITMAP
ENDCHAR
STARTCHAR 00C4
ENCODING 196
SWIDTH 792 0
DWIDTH 11 0
BBX 0 0 0 0
BITMAP
ENDCHAR
STARTCHAR 00C5
ENCODING 197
SWIDTH 792 0
DWIDTH 11 0
BBX 0 0 0 0
BITMAP
ENDCHAR
STARTCHAR 00C6
ENCODING 198
SWIDTH 1008 0
DWIDTH 14 0
BBX 0 0 0 0
BITMAP
ENDCHAR
STARTCHAR 00C7
ENCODING 199
SWIDTH 720 0
DWIDTH 10 0
BBX 0 0 0 0
BITMAP
ENDCHAR
STARTCHAR 00C8
ENCODING 200
SWIDTH 576 0
DWIDTH 8 0
BBX 0 0 0 0
BITMAP
ENDCHAR
STARTCHAR 00C9
ENCODING 201
SWIDTH 576 0
DWIDTH 8 0
BBX 0 0 0 0
BITMAP
ENDCHAR
STARTCHAR 00CA
ENCODING 202
SWIDTH 576 0
DWIDTH 8 0
BBX 0 0 0 0
BITMAP
ENDCHAR
STARTCHAR 00CB
ENCODING 203
SWIDTH 576 0
DWIDTH 8 0
BBX 0 0 0 0
BITMAP
ENDCHAR
STARTCHAR 00CC
ENCODING 204
SWIDTH 288 0
DWIDTH 4 0
BBX 0 0 0 0
BITMAP
ENDCHAR
STARTCHAR 00CD
ENCODING 205
SWIDTH 288 0
DWIDTH 4 0
BBX 0 0 0 0
BITMAP
ENDCHAR
STARTCHAR 00CE
ENCODING 206
SWIDTH 288 0
DWIDTH 4 0
BBX 0 0 0 0
BITMAP
ENDCHAR
STARTCHAR 00CF
ENCODING 207
SWIDTH 288 0
DWIDTH 4 0
BBX 0 0 0 0
BITMAP
ENDCHAR
STARTCHAR 00D0
ENCODING 208
SWIDTH 720 0
DWIDTH 10 0
BBX 0 0 0 0
BITMAP
ENDCHAR
STARTCHAR 00D1
ENCODING 209
SWIDTH 792 0
DWIDTH 11 0
BBX 0 0 0 0
BITMAP
ENDCHAR
STARTCHAR 00D2
ENCODING 210
SWIDTH 792 0
DWIDTH 11 0
BBX 0 0 0 0
BITMAP
ENDCHAR
STARTCHAR 00D3
ENCODING 211
SWIDTH 792 0
DWIDTH 11 0
BBX 0 0 0 0
BITMAP
ENDCHAR
STARTCHAR 00D4
ENCODING 212
SWIDTH 792 0
DWIDTH 11 0
BBX 0 0 0 0
BITMAP
ENDCHAR
STARTCHAR 00D5
ENCODING 213
SWIDTH 792 0
DWIDTH 11 0
BBX 0 0 0 0
BITMAP
ENDCHAR
STARTCHAR 00D6
ENCODING 214
SWIDTH 792 0
DWIDTH 11 0
BBX 0 0 0 0
BITMAP
ENDCHAR
STARTCHAR 00D7
ENCODING 215
SWIDTH 504 0
DWIDTH 7 0
BBX 0 0 0 0
BITMAP
ENDCHAR
STARTCHAR 00D8
ENCODING 216
SWIDTH 792 0
DWIDTH 11 0
BBX 0 0 0 0
BITMAP
ENDCHAR
STARTCHAR 00D9
ENCODING 217
SWIDTH 720 0
DWIDTH 10 0
BBX 0 0 0 0
BITMAP
ENDCHAR
STARTCHAR 00DA
ENCODING 218
SWIDTH 720 0
DWIDTH 10 0
BBX 0 0 0 0
BITMAP
ENDCHAR
STARTCHAR 00DB
ENCODING 219
SWIDTH 720 0
DWIDTH 10 0
BBX 0 0 0 0
BITMAP
ENDCHAR
STARTCHAR 00DC
ENCODING 220
SWIDTH 720 0
DWIDTH 10 0
BBX 0 0 0 0
BITMAP
ENDCHAR
STARTCHAR 00DD
ENCODING 221
SWIDTH 576 0
DWIDTH 8 0
BBX 0 0 0 0
BITMAP
ENDCHAR
STARTCHAR 00DE
ENCODING 222
SWIDTH 576 0
DWIDTH 8 0
BBX 0 0 0 0
BITMAP
ENDCHAR
STARTCHAR 00DF
ENCODING 223
SWIDTH 648 0
DWIDTH 9 0
BBX 0 0 0 0
BITMAP
ENDCHAR
STARTCHAR 00E0
ENCODING 224
SWIDTH 432 0
DWIDTH 6 0
BBX 0 0 0 0
BITMAP
ENDCHAR
STARTCHAR 00E1
ENCODING 225
SWIDTH 432 0
DWIDTH 6 0
BBX 0 0 0 0
BITMAP
ENDCHAR
STARTCHAR 00E2
ENCODING 226
SWIDTH 432 0
DWIDTH 6 0
BBX 0 0 0 0
BITMAP
ENDCHAR
STARTCHAR 00E3
ENCODING 227
SWIDTH 432 0
DWIDTH 6 0
BBX 0 0 0 0
BITMAP
ENDCHAR
STARTCHAR 00E4
ENCODING 228
SWIDTH 432 0
DWIDTH 6 0
BBX 0 0 0 0
BITMAP
ENDCHAR
STARTCHAR 00E5
ENCODING 229
SWIDTH 432 0
DWIDTH 6 0
BBX 0 0 0 0
BITMAP
ENDCHAR
STARTCHAR 00E6
ENCODING 230
SWIDTH 720 0
DWIDTH 10 0
BBX 0 0 0 0
BITMAP
ENDCHAR
STARTCHAR 00E7
ENCODING 231
SWIDTH 432 0
DWIDTH 6 0
BBX 0 0 0 0
BITMAP
ENDCHAR
STARTCHAR 00E8
ENCODING 232
SWIDTH 432 0
DWIDTH 6 0
BBX 0 0 0 0
BITMAP
ENDCHAR
STARTCHAR 00E9
ENCODING 233
SWIDTH 432 0
DWIDTH 6 0
BBX 0 0 0 0
BITMAP
ENDCHAR
STARTCHAR 00EA
ENCODING 234
SWIDTH 432 0
DWIDTH 6 0
BBX 0 0 0 0
BITMAP
ENDCHAR
STARTCHAR 00EB
ENCODING 235
SWIDTH 432 0
DWIDTH 6 0
BBX 0 0 0 0
BITMAP
ENDCHAR
STARTCHAR 00EC
ENCODING 236
SWIDTH 288 0
DWIDTH 4 0
BBX 0 0 0 0
BITMAP
ENDCHAR
STARTCHAR 00ED
ENCODING 237
SWIDTH 288 0
DWIDTH 4 0
BBX 0 0 0 0
BITMAP
ENDCHAR
STARTCHAR 00EE
ENCODING 238
SWIDTH 288 0
DWIDTH 4 0
BBX 0 0 0 0
BITMAP
ENDCHAR
STARTCHAR 00EF
ENCODING 239
SWIDTH 288 0
DWIDTH 4 0
BBX 0 0 0 0
BITMAP
ENDCHAR
STARTCHAR 00F0
ENCODING 240
SWIDTH 576 0
DWIDTH 8 0
BBX 0 0 0 0
BITMAP
ENDCHAR
STARTCHAR 00F1
ENCODING 241
SWIDTH 576 0
DWIDTH 8 0
BBX 0 0 0 0
BITMAP
ENDCHAR
STARTCHAR 00F2
ENCODING 242
SWIDTH 504 0
DWIDTH 7 0
BBX 0 0 0 0
BITMAP
ENDCHAR
STARTCHAR 00F3
ENCODING 243
SWIDTH 504 0
DWIDTH 7 0
BBX 0 0 0 0
BITMAP
ENDCHAR
STARTCHAR 00F4
ENCODING 244
SWIDTH 504 0
DWIDTH 7 0
BBX 0 0 0 0
BITMAP
ENDCHAR
STARTCHAR 00F5
ENCODING 245
SWIDTH 504 0
DWIDTH 7 0
BBX 0 0 0 0
BITMAP
ENDCHAR
STARTCHAR 00F6
ENCODING 246
SWIDTH 504 0
DWIDTH 7 0
BBX 0 0 0 0
BITMAP
ENDCHAR
STARTCHAR 00F7
ENCODING 247
SWIDTH 504 0
DWIDTH 7 0
BBX 0 0 0 0
BITMAP
ENDCHAR
STARTCHAR 00F8
ENCODING 248
SWIDTH 504 0
DWIDTH 7 0
BBX 0 0 0 0
BITMAP
ENDCHAR
STARTCHAR 00F9
ENCODING 249
SWIDTH 504 0
DWIDTH 7 0
BBX 0 0 0 0
BITMAP
ENDCHAR
STARTCHAR 00FA
ENCODING 250
SWIDTH 504 0
DWIDTH 7 0
BBX 0 0 0 0
BITMAP
ENDCHAR
STARTCHAR 00FB
ENCODING 251
SWIDTH 504 0
DWIDTH 7 0
BBX 0 0 0 0
BITMAP
ENDCHAR
STARTCHAR 00FC
ENCODING 252
SWIDTH 504 0
DWIDTH 7 0
BBX 0 0 0 0
BITMAP
ENDCHAR
STARTCHAR 00FD
ENCODING 253
SWIDTH 432 0
DWIDTH 6 0
BBX 0 0 0 0
BITMAP
ENDCHAR
STARTCHAR 00FE
ENCODING 254
SWIDTH 504 0
DWIDTH 7 0
BBX 0 0 0 0
BITMAP
ENDCHAR
STARTCHAR 00FF
ENCODING 255
SWIDTH 432 0
DWIDTH 6 0
BBX 0 0 0 0
BITMAP
ENDCHAR
STARTCHAR 0131
ENCODING 305
SWIDTH 288 0
DWIDTH 4 0
BBX 0 0 0 0
BITMAP
ENDCHAR
STARTCHAR 02C6
ENCODING 710
SWIDTH 504 0
DWIDTH 7 0
BBX 0 0 0 0
BITMAP
ENDCHAR
STARTCHAR 02C7
ENCODING 711
SWIDTH 504 0
DWIDTH 7 0
BBX 0 0 0 0
BITMAP
ENDCHAR
STARTCHAR 02C9
ENCODING 713
SWIDTH 504 0
DWIDTH 7 0
BBX 0 0 0 0
BITMAP
ENDCHAR
STARTCHAR 02D8
ENCODING 728
SWIDTH 504 0
DWIDTH 7 0
BBX 0 0 0 0
BITMAP
ENDCHAR
STARTCHAR 02D9
ENCODING 729
SWIDTH 504 0
DWIDTH 7 0
BBX 0 0 0 0
BITMAP
ENDCHAR
STARTCHAR 02DA
ENCODING 730
SWIDTH 504 0
DWIDTH 7 0
BBX 0 0 0 0
BITMAP
ENDCHAR
STARTCHAR 02DB
ENCODING 731
SWIDTH 504 0
DWIDTH 7 0
BBX 0 0 0 0
BITMAP
ENDCHAR
STARTCHAR 02DC
ENCODING 732
SWIDTH 504 0
DWIDTH 7 0
BBX 0 0 0 0
BITMAP
ENDCHAR
STARTCHAR 02DD
ENCODING 733
SWIDTH 504 0
DWIDTH 7 0
BBX 0 0 0 0
BITMAP
ENDCHAR
STARTCHAR 037E
ENCODING 894
SWIDTH 1008 0
DWIDTH 14 0
BBX 14 13 0 -2
BITMAP
0200
0200
0200
0200
0200
0200
FFFC
0200
0200
0200
0200
0200
0200
ENDCHAR
STARTCHAR 2013
ENCODING 8211
SWIDTH 576 0
DWIDTH 8 0
BBX 0 0 0 0
BITMAP
ENDCHAR
STARTCHAR 2014
ENCODING 8212
SWIDTH 1008 0
DWIDTH 14 0
BBX 0 0 0 0
BITMAP
ENDCHAR
STARTCHAR 2018
ENCODING 8216
SWIDTH 288 0
DWIDTH 4 0
BBX 0 0 0 0
BITMAP
ENDCHAR
STARTCHAR 2019
ENCODING 8217
SWIDTH 288 0
DWIDTH 4 0
BBX 0 0 0 0
BITMAP
ENDCHAR
STARTCHAR 201A
ENCODING 8218
SWIDTH 288 0
DWIDTH 4 0
BBX 0 0 0 0
BITMAP
ENDCHAR
STARTCHAR 201C
ENCODING 8220
SWIDTH 432 0
DWIDTH 6 0
BBX 0 0 0 0
BITMAP
ENDCHAR
STARTCHAR 201D
ENCODING 8221
SWIDTH 432 0
DWIDTH 6 0
BBX 0 0 0 0
BITMAP
ENDCHAR
STARTCHAR 201E
ENCODING 8222
SWIDTH 432 0
DWIDTH 6 0
BBX 0 0 0 0
BITMAP
ENDCHAR
STARTCHAR 2020
ENCODING 8224
SWIDTH 504 0
DWIDTH 7 0
BBX 0 0 0 0
BITMAP
ENDCHAR
STARTCHAR 2021
ENCODING 8225
SWIDTH 504 0
DWIDTH 7 0
BBX 0 0 0 0
BITMAP
ENDCHAR
STARTCHAR 2022
ENCODING 8226
SWIDTH 504 0
DWIDTH 7 0
BBX 0 0 0 0
BITMAP
ENDCHAR
STARTCHAR 2026
ENCODING 8230
SWIDTH 1008 0
DWIDTH 14 0
BBX 0 0 0 0
BITMAP
ENDCHAR
STARTCHAR 2039
ENCODING 8249
SWIDTH 288 0
DWIDTH 4 0
BBX 0 0 0 0
BITMAP
ENDCHAR
STARTCHAR 203A
ENCODING 8250
SWIDTH 288 0
DWIDTH 4 0
BBX 0 0 0 0
BITMAP
ENDCHAR
STARTCHAR 2044
ENCODING 8260
SWIDTH 144 0
DWIDTH 2 0
BBX 0 0 0 0
BITMAP
ENDCHAR
STARTCHAR 20A3
ENCODING 8355
SWIDTH 504 0
DWIDTH 7 0
BBX 0 0 0 0
BITMAP
ENDCHAR
STARTCHAR 20A4
ENCODING 8356
SWIDTH 504 0
DWIDTH 7 0
BBX 0 0 0 0
BITMAP
ENDCHAR
STARTCHAR 20A7
ENCODING 8359
SWIDTH 1008 0
DWIDTH 14 0
BBX 0 0 0 0
BITMAP
ENDCHAR
STARTCHAR 20AC
ENCODING 8364
SWIDTH 504 0
DWIDTH 7 0
BBX 0 0 0 0
BITMAP
ENDCHAR
STARTCHAR 2116
ENCODING 8470
SWIDTH 1152 0
DWIDTH 16 0
BBX 0 0 0 0
BITMAP
ENDCHAR
STARTCHAR 2122
ENCODING 8482
SWIDTH 720 0
DWIDTH 10 0
BBX 0 0 0 0
BITMAP
ENDCHAR
STARTCHAR 2202
ENCODING 8706
SWIDTH 504 0
DWIDTH 7 0
BBX 0 0 0 0
BITMAP
ENDCHAR
STARTCHAR 2206
ENCODING 8710
SWIDTH 504 0
DWIDTH 7 0
BBX 0 0 0 0
BITMAP
ENDCHAR
STARTCHAR 220F
ENCODING 8719
SWIDTH 720 0
DWIDTH 10 0
BBX 0 0 0 0
BITMAP
ENDCHAR
STARTCHAR 2211
ENCODING 8721
SWIDTH 576 0
DWIDTH 8 0
BBX 0 0 0 0
BITMAP
ENDCHAR
STARTCHAR 2212
ENCODING 8722
SWIDTH 504 0
DWIDTH 7 0
BBX 0 0 0 0
BITMAP
ENDCHAR
STARTCHAR 2215
ENCODING 8725
SWIDTH 144 0
DWIDTH 2 0
BBX 0 0 0 0
BITMAP
ENDCHAR
STARTCHAR 2219
ENCODING 8729
SWIDTH 216 0
DWIDTH 3 0
BBX 0 0 0 0
BITMAP
ENDCHAR
STARTCHAR 221A
ENCODING 8730
SWIDTH 504 0
DWIDTH 7 0
BBX 0 0 0 0
BITMAP
ENDCHAR
STARTCHAR 221E
ENCODING 8734
SWIDTH 504 0
DWIDTH 7 0
BBX 0 0 0 0
BITMAP
ENDCHAR
STARTCHAR 222B
ENCODING 8747
SWIDTH 360 0
DWIDTH 5 0
BBX 0 0 0 0
BITMAP
ENDCHAR
STARTCHAR 2248
ENCODING 8776
SWIDTH 504 0
DWIDTH 7 0
BBX 0 0 0 0
BITMAP
ENDCHAR
STARTCHAR 2264
ENCODING 8804
SWIDTH 504 0
DWIDTH 7 0
BBX 0 0 0 0
BITMAP
ENDCHAR
STARTCHAR 2265
ENCODING 8805
SWIDTH 504 0
DWIDTH 7 0
BBX 0 0 0 0
BITMAP
ENDCHAR
STARTCHAR F001
ENCODING 61441
SWIDTH 504 0
DWIDTH 7 0
BBX 0 0 0 0
BITMAP
ENDCHAR
STARTCHAR F002
ENCODING 61442
SWIDTH 504 0
DWIDTH 7 0
BBX 0 0 0 0
BITMAP
ENDCHAR
STARTCHAR FB01
ENCODING 64257
SWIDTH 504 0
DWIDTH 7 0
BBX 0 0 0 0
BITMAP
ENDCHAR
STARTCHAR FB02
ENCODING 64258
SWIDTH 504 0
DWIDTH 7 0
BBX 0 0 0 0
BITMAP
ENDCHAR
ENDFONT
